<svg width="96" height="97" viewBox="0 0 96 97" fill="none" xmlns="http://www.w3.org/2000/svg">
<path d="M94 52.9231C94 70.3201 83.3741 84.4231 62.1224 84.4231C44.517 84.4231 23 66.9792 23 49.5822C23 39.5595 44.517 21.4231 62.1224 21.4231C94 21.4231 94 35.5261 94 52.9231Z" fill="#C7D2FE"/>
<path d="M74.88 59.4631C76.28 56.0631 77.04 52.4231 77.04 48.4231C77.04 45.5431 76.6 42.7831 75.84 40.2231C73.24 40.8231 70.52 41.1431 67.68 41.1431C61.8639 41.1493 56.1315 39.7572 50.9661 37.084C45.8007 34.4108 41.3537 30.5349 38 25.7831C34.4124 34.4638 27.6445 41.4463 19.08 45.3031C18.92 46.3031 18.92 47.3831 18.92 48.4231C18.92 52.2419 19.6722 56.0234 21.1336 59.5515C22.595 63.0797 24.737 66.2854 27.4373 68.9858C32.8909 74.4393 40.2875 77.5031 48 77.5031C52.2 77.5031 56.24 76.5831 59.88 74.9431C62.16 79.3031 63.2 81.4631 63.12 81.4631C56.56 83.6631 51.48 84.7431 48 84.7431C38.32 84.7431 29.08 80.9431 22.28 74.1031C18.144 69.9798 15.0695 64.9151 13.32 59.3431H8V41.1431H12.36C13.681 34.7132 16.718 28.7607 21.1488 23.9175C25.5795 19.0742 31.2388 15.5207 37.5261 13.6341C43.8134 11.7475 50.4941 11.5982 56.8595 13.2019C63.2248 14.8057 69.0372 18.1027 73.68 22.7431C78.7209 27.7641 82.1592 34.1675 83.56 41.1431H88V59.3431H87.76L73.52 72.4231L52.32 70.0231V63.3431H71.64L74.88 59.4631ZM37.08 47.5031C38.28 47.5031 39.44 47.9831 40.28 48.8631C41.1242 49.7142 41.5979 50.8644 41.5979 52.0631C41.5979 53.2618 41.1242 54.412 40.28 55.2631C39.44 56.1031 38.28 56.5831 37.08 56.5831C34.56 56.5831 32.52 54.5831 32.52 52.0631C32.52 49.5431 34.56 47.5031 37.08 47.5031ZM58.88 47.5031C61.4 47.5031 63.4 49.5431 63.4 52.0631C63.4 54.5831 61.4 56.5831 58.88 56.5831C56.36 56.5831 54.32 54.5831 54.32 52.0631C54.32 50.8537 54.8004 49.6939 55.6556 48.8387C56.5108 47.9835 57.6706 47.5031 58.88 47.5031Z" fill="#333333"/>
</svg>
