<svg width="135" height="135" viewBox="0 0 135 135" fill="none" xmlns="http://www.w3.org/2000/svg">
<path d="M100.642 102.779C83.8491 119.571 51.4977 130.002 39.4408 102.389C29.8161 80.346 18.4845 47.7569 35.2771 30.9644C44.9516 21.2899 76.2725 39.7043 100.252 41.5778C127.865 43.7351 117.434 85.986 100.642 102.779Z" fill="#FEF3C7"/>
<g clip-path="url(#clip0_8_138)">
<path d="M85 53.4231H21V45.4231H85M85 93.4231H21V69.4231H85M85 37.4231H21C16.56 37.4231 13 40.9831 13 45.4231V93.4231C13 95.5448 13.8429 97.5797 15.3431 99.0799C16.8434 100.58 18.8783 101.423 21 101.423H85C87.1217 101.423 89.1566 100.58 90.6569 99.0799C92.1571 97.5797 93 95.5448 93 93.4231V45.4231C93 43.3014 92.1571 41.2665 90.6569 39.7662C89.1566 38.266 87.1217 37.4231 85 37.4231Z" fill="#333333"/>
</g>
<defs>
<clipPath id="clip0_8_138">
<rect width="96" height="96" fill="white" transform="translate(5 21.4231)"/>
</clipPath>
</defs>
</svg>
