<svg width="135" height="134" viewBox="0 0 135 134" fill="none" xmlns="http://www.w3.org/2000/svg">
<path d="M28.5321 95.9222C13.7236 77.3565 6.97733 44.0412 35.7661 35.1492C58.7474 28.0509 92.3996 20.4364 107.208 39.0022C115.74 49.6983 93.9367 78.7625 89.3923 102.382C84.1593 129.58 43.3406 114.488 28.5321 95.9222Z" fill="#D1FAE5"/>
<g clip-path="url(#clip0_8_139)">
<g clip-path="url(#clip1_8_139)">
<path d="M76 45.4231C75.2 45.4231 74.4 45.8231 73.6 46.2231L42 63.8231C40.8 64.6231 40 65.8231 40 67.4231V103.423C40 105.023 40.8 106.223 42 107.023L73.6 124.623C74.4 125.023 75.2 125.423 76 125.423C76.8 125.423 77.6 125.023 78.4 124.623L82 122.623C80.8 120.223 80.4 117.423 80 114.623V87.8231L104 74.2231V89.4231C106.8 89.4231 109.6 89.8231 112 90.6231V67.4231C112 65.8231 111.2 64.6231 110 63.8231L78.4 46.2231C77.6 45.8231 76.8 45.4231 76 45.4231ZM76 54.2231L100 67.4231L92 71.8231L68.4 58.2231L76 54.2231ZM60.4 62.6231L84 76.6231L76 81.0231L52 67.4231L60.4 62.6231ZM48 74.2231L72 87.8231V114.623L48 101.023V74.2231ZM113.2 100.623L98.8 115.023L92.4 108.623L88 113.423L99.2 125.423L118.4 106.223L113.2 100.623Z" fill="#333333"/>
</g>
</g>
<defs>
<clipPath id="clip0_8_139">
<rect width="96" height="96" fill="white" transform="translate(28 37.4231)"/>
</clipPath>
<clipPath id="clip1_8_139">
<rect width="96" height="96" fill="white" transform="translate(28 37.4231)"/>
</clipPath>
</defs>
</svg>
