<svg width="15" height="14" viewBox="0 0 15 14" fill="none" xmlns="http://www.w3.org/2000/svg">
<path d="M12.2 2.27329C11.5888 1.65591 10.8608 1.1664 10.0585 0.833326C9.25609 0.500248 8.39544 0.330265 7.5267 0.333292C3.8867 0.333292 0.920033 3.29996 0.920033 6.93996C0.920033 8.10662 1.2267 9.23996 1.80003 10.24L0.866699 13.6666L4.3667 12.7466C5.33337 13.2733 6.42003 13.5533 7.5267 13.5533C11.1667 13.5533 14.1334 10.5866 14.1334 6.94662C14.1334 5.17996 13.4467 3.51996 12.2 2.27329ZM7.5267 12.4333C6.54003 12.4333 5.57337 12.1666 4.7267 11.6666L4.5267 11.5466L2.4467 12.0933L3.00003 10.0666L2.8667 9.85996C2.31853 8.9846 2.02746 7.97279 2.0267 6.93996C2.0267 3.91329 4.49337 1.44663 7.52003 1.44663C8.9867 1.44663 10.3667 2.01996 11.4 3.05996C11.9117 3.56927 12.3172 4.17507 12.593 4.84224C12.8688 5.50942 13.0094 6.2247 13.0067 6.94662C13.02 9.97329 10.5534 12.4333 7.5267 12.4333ZM10.54 8.32662C10.3734 8.24662 9.56003 7.84663 9.41337 7.78662C9.26003 7.73329 9.15337 7.70662 9.04003 7.86662C8.9267 8.03329 8.61337 8.40662 8.52003 8.51329C8.4267 8.62663 8.3267 8.63996 8.16003 8.55329C7.99337 8.47329 7.46003 8.29329 6.83337 7.73329C6.34003 7.29329 6.01337 6.75329 5.91337 6.58663C5.82003 6.41996 5.90003 6.33329 5.9867 6.24662C6.06003 6.17329 6.15337 6.05329 6.23337 5.95996C6.31337 5.86662 6.3467 5.79329 6.40003 5.68662C6.45337 5.57329 6.4267 5.47996 6.3867 5.39996C6.3467 5.31996 6.01337 4.50663 5.88003 4.17329C5.7467 3.85329 5.6067 3.89329 5.5067 3.88663H5.1867C5.07337 3.88663 4.90003 3.92663 4.7467 4.09329C4.60003 4.25996 4.17337 4.65996 4.17337 5.47329C4.17337 6.28663 4.7667 7.07329 4.8467 7.17996C4.9267 7.29329 6.01337 8.95996 7.6667 9.67329C8.06003 9.84663 8.3667 9.94663 8.6067 10.02C9.00003 10.1466 9.36003 10.1266 9.6467 10.0866C9.9667 10.04 10.6267 9.68662 10.76 9.29996C10.9 8.91329 10.9 8.58663 10.8534 8.51329C10.8067 8.43996 10.7067 8.40662 10.54 8.32662Z" fill="white"/>
</svg>
